/* XPM */
static char *result[] = {
/* columns rows colors chars-per-pixel */
"40 40 200 2 ",
"   c #3D381D",
".  c #3F3D36",
"X  c #483F34",
"o  c #5A421D",
"O  c #58501D",
"+  c #5B511D",
"@  c #614E1B",
"#  c #665B18",
"$  c #6E621A",
"%  c #776A16",
"&  c #79651A",
"*  c #4F4823",
"=  c #4F4826",
"-  c #49442C",
";  c #57512C",
":  c #4A4239",
">  c #4A463A",
",  c #4A473E",
"<  c #524D32",
"1  c #5C503E",
"2  c #7A5A22",
"3  c #605939",
"4  c #6B6127",
"5  c #756C3F",
"6  c #494640",
"7  c #4C4944",
"8  c #4D4A46",
"9  c #49474C",
"0  c #4D4B4C",
"q  c #534F4E",
"w  c #595046",
"e  c #53504E",
"r  c #5F544A",
"t  c #5B534D",
"y  c #525051",
"u  c #5A5554",
"i  c #5A5757",
"p  c #5D5859",
"a  c #5A585D",
"s  c #5E5B5D",
"d  c #5D5A5E",
"f  c #635D5B",
"g  c #605C5D",
"h  c #615E5C",
"j  c #615E5D",
"k  c #646058",
"l  c #67645E",
"z  c #706A55",
"x  c #797254",
"c  c #7A7354",
"v  c #5C5B63",
"b  c #666261",
"n  c #646163",
"m  c #626168",
"M  c #636169",
"N  c #676468",
"B  c #66646C",
"V  c #6A666A",
"C  c #6A676D",
"Z  c #636071",
"A  c #646171",
"S  c #656570",
"D  c #656571",
"F  c #666672",
"G  c #666772",
"H  c #676574",
"J  c #686675",
"K  c #686873",
"L  c #6B6A73",
"P  c #696974",
"I  c #6A6876",
"U  c #6B6877",
"Y  c #6B6B76",
"T  c #6C6B74",
"R  c #6D6D77",
"E  c #6D6A79",
"W  c #6F6F79",
"Q  c #6F6C7A",
"!  c #706E75",
"~  c #706F7A",
"^  c #706E7C",
"/  c #716E7C",
"(  c #70707A",
")  c #71707B",
"_  c #73717A",
"`  c #72717C",
"'  c #72727C",
"]  c #73727C",
"[  c #73727D",
"{  c #73707E",
"}  c #75737C",
"|  c #74717E",
" . c #74717F",
".. c #74737E",
"X. c #75737F",
"o. c #76747D",
"O. c #77757D",
"+. c #75747E",
"@. c #75747F",
"#. c #77767E",
"$. c #78767E",
"%. c #815F1D",
"&. c #885F1F",
"*. c #836A1A",
"=. c #8D6A1E",
"-. c #8B7C1E",
";. c #835E20",
":. c #846320",
">. c #857823",
",. c #8D7E26",
"<. c #907D26",
"1. c #91811C",
"2. c #A28F16",
"3. c #B28E1E",
"4. c #A4921C",
"5. c #A99618",
"6. c #AC961B",
"7. c #B49F16",
"8. c #B29E1B",
"9. c #B6A11A",
"0. c #B6A21F",
"q. c #958734",
"w. c #B88E20",
"e. c #B9A525",
"r. c #C59D1F",
"t. c #C2AC17",
"y. c #C4AD17",
"u. c #C3AC18",
"i. c #C4AE1A",
"p. c #C9AC1B",
"a. c #D0B819",
"s. c #D3BA1B",
"d. c #D7BE1A",
"f. c #D9BF1A",
"g. c #D8BE1B",
"h. c #C89724",
"j. c #CEA721",
"k. c #CFA820",
"l. c #D2AD20",
"z. c #DBC11A",
"x. c #E2C71B",
"c. c #E6CC1C",
"v. c #EDD11B",
"b. c #EBD01C",
"n. c #EDD11C",
"m. c #DBC538",
"M. c #E7C82B",
"N. c #EDD222",
"B. c #EBD43E",
"V. c #898054",
"C. c #A4995F",
"Z. c #BCAB45",
"A. c #AEA260",
"S. c #CFBD4C",
"D. c #E3CE48",
"F. c #E2CD50",
"G. c #E0CC54",
"H. c #E2CF5C",
"J. c #767380",
"K. c #797780",
"L. c #787781",
"P. c #797781",
"I. c #787682",
"U. c #797783",
"Y. c #797882",
"T. c #7A7882",
"R. c #7A7983",
"E. c #7B7983",
"W. c #7A7884",
"Q. c #7B7984",
"!. c #7B7A84",
"~. c #7C7A84",
"^. c #7C7A85",
"/. c #7C7B85",
"(. c #7D7B85",
"). c #7E7C85",
"_. c #7D7C86",
"`. c #7E7C86",
"'. c #7E7C87",
"]. c #7E7D87",
"[. c #7F7D88",
"{. c #7F7E88",
"}. c #807E88",
"|. c #807E89",
" X c #817E89",
".X c #817F89",
"XX c #817F8A",
"oX c #82808A",
"OX c #82808B",
"+X c #82818B",
"@X c #83818B",
"#X c #83818C",
"$X c #83828D",
"%X c #84828C",
"&X c #85828C",
"*X c #85838C",
"=X c #84828D",
"-X c #85838D",
";X c #85838E",
":X c #86848E",
/* pixels */
"%X%X%X%X%X%X%X%X%X%X%X%X%X%X%X%X%X%X%X%X%X%X%X%X%X%X%X%X%X%X%X%X%X%X%X%X%X%X%X%X",
"%X%X%X%X%X%X%X%X%X%X%X%X%X%X%X%X%X%X%X%X%X%X%X%X%X%X%X%X%X%X%X%X%X%X%X%X%X%X%X%X",
"%X%X%X%X%X%X%X%X%X%X%X%X%X%X%X%X%X%X%X%X%X%X%X%X%X%X%X%X%X%X%X%X%X%X%X%X%X%X%X%X",
"%X%X%X%X%X%X%X%X%X%X%X%X%X%X%X%XY.' L.%X%X%X%X%X%X%X%X%X%X%X%X%X%X%X%X%X%X%X%X%X",
"%X%X%X%X%X%X%X%X%X%X%X%X%X%X%X%X( S W %X%X%X%X%X%X%X%X%X%X%X%X%X%X%X%X%X%X%X%X%X",
"%X%X%X%X%X%X%X%X%X%X%X%X%X%X%X%X@.R +.%X%X%X%X%X%XoX/./.oX%X%X%X%X%X%X%X%X%X%X%X",
"%X%X%X%X%X%X%X%X%X%X%X%X%X%X%X%X@X+X@X%X%X%X%X%X%X/.K P _.%X%X%X%X%X%X%X%X%X%X%X",
"%X%X%X%X%X%X%X%X%X%X%X%X%X%X%X%X%X%X%X%X%X%X%X%X%X(.P P `.%X%X%X%X%X%X%X%X%X%X%X",
"%X%X%X%X%X%X%X%X%X%X%X%X%X%X%X%X%X%X%X%X%X%X%X%X%XoX_._.OX%X%X%X%X%X%X%X%X%X%X%X",
"%X%X%X%X%X%X%X%X%X%X%X%X%X%X%X%X%X%X%X%X%X%X%X%X%X%X%X%X%X%X%X%X%X%X%X%X%X%X%X%X",
"%X%X%X%X%X%X%X%X%X%X%X%X%X%X%X%X%X%X%X%X%X%X%X%X%X%X%X%X%X%X%X%X%X%X%X%X%X%X%X%X",
"%X%X%X%X%X%X%X%X%X%X%X%X%X%X%X%X-X-X%X%X%X%X%X%X%X%X%X%X%X%X%X%X%X%X%X%X%X%X%X%X",
"%X%X%X%X%X%X%X%X%X{.`.|.%X=X.X^.P.o.).-X%X%X%X%X%X%X%X%X%X%X%X%X%X%X%X%X%X%X%X%X",
"%X%X%X%X%X%X%X%X@X~ K [ -X~.e z x c 8 #.-X%X%X%X%X%X%X%X%X%X%X%X%X%X%X%X%X%X%X%X",
"%X%X%X%X%X%X%X%X@XW G ] }.0 V.G.m.F.q.h ;X%X%X%X%X%X%X%X%X%X%X%X%X%X%X%X%X%X%X%X",
"%X%X%X%X%X%X%X%X%X_.E.{.s 5 H.1.4 8.i.< T.-X%X%X%X%X%X%X%X%X%X%X%X%X%X%X%X%X%X%X",
"%X%X%X%X%X%X%X%X%X%X%X;Xk e.0.> v $ f.>._ -X%X%X%X%X%X%X%X%X%X%X%X%X%X%X%X%X%X%X",
"%X%X%X%X%X%X%X%X%X%X%X;Xb 6.9.3 1 o j.,.B ;X%X%X%X%X%X%X%X%X%X%X%X%X%X%X%X%X%X%X",
"%X%X%X%X%X%X%X%X%X%X%X;XN :.k.p.r.h.M.Z.= M =X%X%X%X%X%X%X%X%X%X%X%X%X%X%X%X%X%X",
"%X%X%X%X%X%X%X%X%X%X%X-XO.X 2 =.w.3.s.N.t.O a @X=X%X%X%X%X%X%X%X%X%X%X%X%X%X%X%X",
"%X%X%X%X%X%X%X%X%X%X%X%X-XK.C q r t + y.n.a.# y }.-X%X%X%X%X%X%X%X%X%X%X%X%X%X%X",
"%X%X%X%X%X%X%X%X%X%X%X%X%X-X;X#X#X$Xm * 7.b.z.% 7 E.-X%X%X%X%X%X%X%X%X%X%X%X%X%X",
"%X%X%X%XR.( ..@X%X%X%X%X%X%X%X%X%X%X-XL - 2.c.x.-.6 } -X%X%X%X%X}.` ) ].%X%X%X%X",
"%X%X%X%X@.D Y oX%X%X%X%X%X%X%X%X%X%X%X:XT   u.v.B.C., ! -X%X%X%X`.K F !.&X%X%X%X",
"%X%X%X%XR.W [ +X%X%X%X%X%X%X%X%X%X%X%X-Xd & g.5.4.D.A.j %X%X%X%X}.) ~ '.%X%X%X%X",
"%X%X%X%X%X@X@X%X%X%X%X%X%X%X%X%X%X%X%X;Xg %.*.. ; d.S.l @X%X%X%X%X@X@X%X%X%X%X%X",
"%X%XXX.XOX%X%X%X%X%X%X%X%X%X%X%X%X%X%X-X#.u p 9 @ l.<.i %X%X%X%X%X%X%XoX XoX%X%X",
"%XOXQ J J.%X%X%X%X%X%X%X%X%X%X%X%X%X%X%X-X-X$Xw &.;.: E.-X%X%X%X%X%X@X/ J | %X%X",
"%XoXU A { %X%X%X%X%X%X%X%X%X%X%X%X%X%X%X%X%X%XV f n $.-X%X%X%X%X%X%X@XE Z ^ %X%X",
"%X@XI.X.^.%X%X%X%X%X%X%X%X%X%X%X%X%X%X%X%X%X%X-X-X;X-X%X%X%X%X%X%X%X%XU.X.Q.%X%X",
"%X%X%X%X%X%X%X%X%X%X%X%X%X%X%X%X%X%X%X%X%X%X%X%X%X%X%X%X%X%X%X%X%X%X%X%X%X%X%X%X",
"%X%X%X%X%X%X%X%X%X%X%X%X%X%X%X%X%X%X%X%X%X%X%X%X%X%X%X%X%X%X%X%X%X%X%X%X%X%X%X%X",
"%X%X%X%X%X%X%X%X%X%X%X%X%X%X%X%X%X%X%X%X%X%X%X%X%X%X%X%X%X%X%X%X%X%X%X%X%X%X%X%X",
"%X%X%X%X%X%X%X%X%X%X%X%X%X%X%X%X%X%X%X%X%X%X%X%X%X%X%X%X%X%X%X%X%X%X%X%X%X%X%X%X",
"%X%X%X%X%X%X%X%X%X%X%X%X%X%X%X%X%X%X%X%X%X%X%X%X%X%X%X%X%X%X%X%X%X%X%X%X%X%X%X%X",
"%X%X%X%X%X%X%X%X%X%X%X%X%X%X%X%X%X%X%X%X%X%X%X%X%X%X%X%X%X%X%X%X%X%X%X%X%X%X%X%X",
"%X%X%X%X%X%X%X%X%X%X%X%X%XoXJ. .'.%X%X%X%X%X%X%X%X%X%X%X%X%X%X%X%X%X%X%X%X%X%X%X",
"%X%X%X%X%X%X%X%X%X%X%X%X%X[.H A I.*X%X%X%X%X%X%X%X%X%X%X%X%X%X%X%X%X%X%X%X%X%X%X",
"%X%X%X%X%X%X%X%X%X%X%X%X%X|.E I W.%X%X%X%X%X%X%X%X%X%X%X%X%X%X%X%X%X%X%X%X%X%X%X",
"%X%X%X%X%X%X%X%X%X%X%X%X%X%XXX.X@X%X%X%X%X%X%X%X%X%X%X%X%X%X%X%X%X%X%X%X%X%X%X%X"
};
