/* XPM */
static char * collectible_xpm[] = {
"32 32 105 2",
"  	c None",
". 	c #22520B",
"+ 	c #23510C",
"@ 	c #22510C",
"# 	c #21520C",
"$ 	c #3F671D",
"% 	c #436920",
"& 	c #346117",
"* 	c #416A1D",
"= 	c #41691D",
"- 	c #557A29",
"; 	c #577A2A",
"> 	c #4F7425",
", 	c #5E812E",
"' 	c #2C5912",
") 	c #668632",
"! 	c #356017",
"~ 	c #2F5B14",
"{ 	c #3B631A",
"] 	c #5F802D",
"^ 	c #628431",
"/ 	c #325E15",
"( 	c #22510B",
"_ 	c #537928",
": 	c #2E5A12",
"< 	c #61822F",
"[ 	c #658531",
"} 	c #668532",
"| 	c #366116",
"1 	c #23520C",
"2 	c #466D20",
"3 	c #3F681C",
"4 	c #2D5A12",
"5 	c #3C651C",
"6 	c #355F16",
"7 	c #986D1E",
"8 	c #9F7D21",
"9 	c #C9B523",
"0 	c #C4AD25",
"a 	c #B4922D",
"b 	c #C2A827",
"c 	c #AD871F",
"d 	c #996D1F",
"e 	c #996E1F",
"f 	c #AA7E22",
"g 	c #ECC32B",
"h 	c #FBD02A",
"i 	c #F2C72B",
"j 	c #C29C2E",
"k 	c #EBC12B",
"l 	c #FDD22A",
"m 	c #B58A24",
"n 	c #AB8325",
"o 	c #AF8B2F",
"p 	c #EDC42B",
"q 	c #FFD42A",
"r 	c #F7CC2B",
"s 	c #B28A2A",
"t 	c #996F1F",
"u 	c #D1A525",
"v 	c #DEB327",
"w 	c #E5BC2B",
"x 	c #F9CF2A",
"y 	c #F3C92B",
"z 	c #C8A22D",
"A 	c #FCD12A",
"B 	c #DFB528",
"C 	c #D5A925",
"D 	c #9A6E1F",
"E 	c #F4C929",
"F 	c #EFC52B",
"G 	c #B8942E",
"H 	c #E7BF2C",
"I 	c #D0A72C",
"J 	c #E2B92C",
"K 	c #DCB52C",
"L 	c #D7AF2C",
"M 	c #E7BE2B",
"N 	c #D2AB2D",
"O 	c #B5902E",
"P 	c #CBA42D",
"Q 	c #C09B2E",
"R 	c #C19B2E",
"S 	c #CAA42D",
"T 	c #B7922E",
"U 	c #D3AC2D",
"V 	c #9A6E20",
"W 	c #DCB42C",
"X 	c #F7CD2A",
"Y 	c #DCB42D",
"Z 	c #EFC62B",
"` 	c #E3BB2C",
" .	c #DAB32D",
"..	c #9B701F",
"+.	c #B28623",
"@.	c #F5CB2B",
"#.	c #FED42B",
"$.	c #BE9324",
"%.	c #9B6F20",
"&.	c #AC8222",
"*.	c #D6AA26",
"=.	c #CDA328",
"-.	c #B9922C",
";.	c #CBA228",
">.	c #B58A22",
"                                                                ",
"                                                                ",
"                                                                ",
"                                                                ",
"                          . +   + @                             ",
"                        # $ % & * = #                           ",
"                        @ - ; @ > , @                           ",
"                    @ ' ) ) ; @ > ) ) ! @                       ",
"                      ~ { ] ; @ > ^ { / (                       ",
"                        @ _ ; @ > ] @                           ",
"                    @ : < [ ; @ > } < | @                       ",
"                    1 : 2 2 3 4 5 2 2 6 @                       ",
"                        @ @ @ @ @ @ @                           ",
"                    7 8 9 9 0 a b 9 9 c d                       ",
"                    e f g h i j k l g m e                       ",
"                    e n o p q q q r o s e                       ",
"                  t u v w x y z p A w B C D                     ",
"                  e E q q q F G H q q q q e e                   ",
"                  e E q q q q q q q q q q e e                   ",
"                  e I J q K K q J L q M N e e                   ",
"                  e O P q Q R q S T q U o V e                   ",
"                  e E q q q q q q q q q q e e                   ",
"                  e E y W X q q q A Y Z q e e                   ",
"                  e E ` o p q q q r o  .q e e                   ",
"                    ..+.@.l F G H #.@.$.%.                      ",
"                    D &.*.*.=.-.;.*.*.>.t                       ",
"                        e e e e e e e                           ",
"                                                                ",
"                                                                ",
"                                                                ",
"                                                                ",
"                                                                "};
