/* XPM */
static char * empty_xpm[] = {
"32 32 706 2",
"  	c #8BBEF7",
". 	c #8EC1FA",
"+ 	c #91C5FF",
"@ 	c #93C7FF",
"# 	c #8FC5FF",
"$ 	c #8BC1FD",
"% 	c #87BDF9",
"& 	c #85BBF7",
"* 	c #94C8FF",
"= 	c #8FC3FC",
"- 	c #93C4FE",
"; 	c #9FCEFF",
"> 	c #A4D1FF",
", 	c #A0CBFF",
"' 	c #9FC8FC",
") 	c #A3CEFF",
"! 	c #9BC6FB",
"~ 	c #95C3F7",
"{ 	c #96C5FB",
"] 	c #9DCCFF",
"^ 	c #9DCEFF",
"/ 	c #98C9FF",
"( 	c #96C7FF",
"_ 	c #A8D7FF",
": 	c #9ECDFF",
"< 	c #9FCAFF",
"[ 	c #A9D5FF",
"} 	c #B0D8FF",
"| 	c #AAD3FF",
"1 	c #A7CCF9",
"2 	c #A6CCFD",
"3 	c #89BBF6",
"4 	c #8DBFFA",
"5 	c #90C4FE",
"6 	c #92C6FF",
"7 	c #8CC2FE",
"8 	c #88BEFA",
"9 	c #86BCF8",
"0 	c #8FC3FD",
"a 	c #92C5FE",
"b 	c #99CAFF",
"c 	c #9FCCFF",
"d 	c #A0C9FD",
"e 	c #A1CCFF",
"f 	c #9BC9FD",
"g 	c #95C4F8",
"h 	c #94C3F9",
"i 	c #99CBFF",
"j 	c #9CCDFF",
"k 	c #97C8FF",
"l 	c #A4D3FF",
"m 	c #9ECCFF",
"n 	c #A5D1FF",
"o 	c #ABD5FF",
"p 	c #ABD4FF",
"q 	c #A9CFFC",
"r 	c #A7CDFE",
"s 	c #87B9F6",
"t 	c #8ABCF9",
"u 	c #8EC2FE",
"v 	c #91C4FF",
"w 	c #8DC3FF",
"x 	c #89BFFD",
"y 	c #8CC0FC",
"z 	c #93C6FF",
"A 	c #93C4FC",
"B 	c #98C5FC",
"C 	c #9DCBFF",
"D 	c #A0CBFE",
"E 	c #9EC9FC",
"F 	c #96C5F9",
"G 	c #93C2F8",
"H 	c #95C7FC",
"I 	c #9ACBFF",
"J 	c #98CBFF",
"K 	c #95C8FF",
"L 	c #94C7FE",
"M 	c #9DCFFF",
"N 	c #9FCDFF",
"O 	c #A1CDFE",
"P 	c #A6D0FF",
"Q 	c #ACD5FF",
"R 	c #ADD3FF",
"S 	c #A6CEFF",
"T 	c #87B9F8",
"U 	c #88BAF9",
"V 	c #8BBEFD",
"W 	c #8FC2FF",
"X 	c #8AC0FF",
"Y 	c #87BDFB",
"Z 	c #8EC1F8",
"` 	c #9CCAFE",
" .	c #A0CEFF",
"..	c #9BC9FB",
"+.	c #97C6FA",
"@.	c #90C2F7",
"#.	c #92C4F9",
"$.	c #96C9FF",
"%.	c #92C5FC",
"&.	c #97CAFF",
"*.	c #9ED0FF",
"=.	c #A0CFFF",
"-.	c #9CCAFC",
";.	c #ACD6FF",
">.	c #AED7FF",
",.	c #A8D0FF",
"'.	c #88B9FB",
").	c #88BBFC",
"!.	c #8BBEFF",
"~.	c #8DC2FF",
"{.	c #8CC3FF",
"].	c #89C0FF",
"^.	c #87BEFE",
"/.	c #84BCF9",
"(.	c #8EC4FF",
"_.	c #9BCAFE",
":.	c #9DCBFD",
"<.	c #99C8FC",
"[.	c #91C3F8",
"}.	c #8FC1F6",
"|.	c #94C9FF",
"1.	c #91C6FC",
"2.	c #92C7FD",
"3.	c #9BCEFF",
"4.	c #9BCBFC",
"5.	c #9DCBFC",
"6.	c #A8D4FF",
"7.	c #ADD7FF",
"8.	c #A8D2FF",
"9.	c #8BBCFF",
"0.	c #87BAFC",
"a.	c #86B9FB",
"b.	c #85BAFC",
"c.	c #88BFFF",
"d.	c #8BC2FF",
"e.	c #8AC1FF",
"f.	c #87BEFF",
"g.	c #83BAFA",
"h.	c #8AC2FF",
"i.	c #8FC6FF",
"j.	c #90C4FD",
"k.	c #90C3FA",
"l.	c #96C8FD",
"m.	c #9CCBFF",
"n.	c #99CBFE",
"o.	c #93C5FA",
"p.	c #8CBFF4",
"q.	c #8CC1F7",
"r.	c #93C8FE",
"s.	c #8EC2FB",
"t.	c #95CAFF",
"u.	c #9ACDFF",
"v.	c #9ACCFF",
"w.	c #A6D2FF",
"x.	c #A7D3FF",
"y.	c #8EC0FF",
"z.	c #88BAFF",
"A.	c #84B6FB",
"B.	c #82B7FB",
"C.	c #85BCFF",
"D.	c #88C1FF",
"E.	c #86C0FF",
"F.	c #7FB9F9",
"G.	c #84BBFB",
"H.	c #8AC2FD",
"I.	c #90C7FF",
"J.	c #90C3F8",
"K.	c #93C6FB",
"L.	c #9BCDFF",
"M.	c #8CBFF6",
"N.	c #87BBF4",
"O.	c #8BC2FA",
"P.	c #91C8FF",
"Q.	c #92C9FF",
"R.	c #88BFF8",
"S.	c #99CCFF",
"T.	c #98CAFF",
"U.	c #9ACAFB",
"V.	c #A2D0FF",
"W.	c #90C2FF",
"X.	c #89BBFF",
"Y.	c #81B6FA",
"Z.	c #80B5F9",
"`.	c #83B9FF",
" +	c #86BFFF",
".+	c #87C0FF",
"++	c #7EB7FA",
"@+	c #7EB8F8",
"#+	c #87BFFC",
"$+	c #90C8FF",
"%+	c #8BBFF8",
"&+	c #8EC3F9",
"*+	c #8ABEF7",
"=+	c #83BAF2",
"-+	c #87BFF8",
";+	c #8FC7FF",
">+	c #92CAFF",
",+	c #85BDF8",
"'+	c #85BDF6",
")+	c #8EC5FD",
"!+	c #98CCFF",
"~+	c #8DC0F7",
"{+	c #94C6FF",
"]+	c #91C3FF",
"^+	c #86BBFF",
"/+	c #7DB2F6",
"(+	c #7EB4FA",
"_+	c #85BEFF",
":+	c #81BCFF",
"<+	c #82BDFF",
"[+	c #78B3F5",
"}+	c #79B3F3",
"|+	c #93CBFF",
"1+	c #90C6FF",
"2+	c #8BC2FB",
"3+	c #8DC1FA",
"4+	c #8EC2FC",
"5+	c #81B8F1",
"6+	c #7EB6F1",
"7+	c #85BDFA",
"8+	c #8BC6FF",
"9+	c #8AC5FF",
"0+	c #83BEFA",
"a+	c #8DC5FF",
"b+	c #8DC1FB",
"c+	c #90C3FC",
"d+	c #92C4FF",
"e+	c #8ABFFF",
"f+	c #80B7FA",
"g+	c #80B9FE",
"h+	c #7FBAFF",
"i+	c #84BFFF",
"j+	c #7CB7FB",
"k+	c #79B4F6",
"l+	c #82BBFE",
"m+	c #8BC5FF",
"n+	c #97CBFF",
"o+	c #83BBF8",
"p+	c #7CB7F3",
"q+	c #80BAFA",
"r+	c #84C0FF",
"s+	c #89C5FF",
"t+	c #81BDFC",
"u+	c #7DB9F7",
"v+	c #84BEFD",
"w+	c #8CC4FF",
"x+	c #8AC0FC",
"y+	c #8EC1FF",
"z+	c #92C5FF",
"A+	c #8FC4FF",
"B+	c #7DB3F9",
"C+	c #7AB3F8",
"D+	c #7BB6FC",
"E+	c #7BB7FF",
"F+	c #83BFFF",
"G+	c #7EBAFF",
"H+	c #77B3F9",
"I+	c #78B3F9",
"J+	c #8BC4FF",
"K+	c #8AC3FF",
"L+	c #84BBFC",
"M+	c #86BDFE",
"N+	c #7DB7F7",
"O+	c #7AB5F9",
"P+	c #7AB7FA",
"Q+	c #86C3FF",
"R+	c #7FBCFF",
"S+	c #78B5F8",
"T+	c #7AB5F7",
"U+	c #8DC7FF",
"V+	c #7EB5F5",
"W+	c #8ABDFC",
"X+	c #90C3FF",
"Y+	c #91C7FF",
"Z+	c #7DB6F9",
"`+	c #77B2F6",
" @	c #79B8FF",
".@	c #7EBCFF",
"+@	c #7CBAFF",
"@@	c #76B2FB",
"#@	c #70ACF5",
"$@	c #79B3FC",
"%@	c #88C2FF",
"&@	c #8AC4FF",
"*@	c #83BCFF",
"=@	c #84BAFA",
"-@	c #7DB8FC",
";@	c #75B1F7",
">@	c #71ADF5",
",@	c #80BCFF",
"'@	c #7CBBFF",
")@	c #78B4FC",
"!@	c #74B0F8",
"~@	c #7DB9FF",
"{@	c #88C3FF",
"]@	c #83BEFF",
"^@	c #77B0F5",
"/@	c #88BCF8",
"(@	c #8DC1FD",
"_@	c #81BAFD",
":@	c #78B3F7",
"<@	c #78B6FF",
"[@	c #78B7FF",
"}@	c #72B0FD",
"|@	c #6BA9F6",
"1@	c #73AEFC",
"2@	c #87C2FF",
"3@	c #85BDFF",
"4@	c #7FB4F8",
"5@	c #8BC0FF",
"6@	c #7EB8FF",
"7@	c #73AFF8",
"8@	c #6BA9F2",
"9@	c #75B3FE",
"0@	c #79B9FF",
"a@	c #79B7FF",
"b@	c #73B1FC",
"c@	c #74B2FB",
"d@	c #77B1FA",
"e@	c #8CC0FA",
"f@	c #8AC1FA",
"g@	c #89C4FF",
"h@	c #85BFFF",
"i@	c #7BB8FB",
"j@	c #75B3FC",
"k@	c #73B2FF",
"l@	c #75B4FF",
"m@	c #73B0FF",
"n@	c #6EABFB",
"o@	c #70AAFC",
"p@	c #78B3FF",
"q@	c #80BBFF",
"r@	c #7EB2FB",
"s@	c #81B6FC",
"t@	c #85BBFF",
"u@	c #7FBBFF",
"v@	c #6AA9F6",
"w@	c #6EADFC",
"x@	c #74B3FF",
"y@	c #77B6FF",
"z@	c #72B1FE",
"A@	c #70AEFB",
"B@	c #72B0FB",
"C@	c #7AB5FF",
"D@	c #95C9FF",
"E@	c #89C3FF",
"F@	c #7FBCFD",
"G@	c #76B2FA",
"H@	c #70AEF7",
"I@	c #6EABFE",
"J@	c #6CA9FC",
"K@	c #76B0FF",
"L@	c #7DB3FD",
"M@	c #7FB3FC",
"N@	c #80B6FE",
"O@	c #82BAFF",
"P@	c #83BDFF",
"Q@	c #76B3FF",
"R@	c #6AA9F9",
"S@	c #6AABFB",
"T@	c #70AFFF",
"U@	c #71B0FF",
"V@	c #6DACFB",
"W@	c #6AA9F8",
"X@	c #70ADFD",
"Y@	c #78B5FF",
"Z@	c #9DD0FF",
"`@	c #86BDF6",
" #	c #82BFFF",
".#	c #73B2F9",
"+#	c #6BABF3",
"@#	c #71B3FF",
"##	c #75B6FF",
"$#	c #6DABFE",
"%#	c #63A1F6",
"&#	c #6DA9FF",
"*#	c #80BAFF",
"=#	c #7BB4FF",
"-#	c #7BB3FE",
";#	c #72AFFF",
">#	c #69A8F8",
",#	c #66A5F5",
"'#	c #6FAEFE",
")#	c #67A5F8",
"!#	c #6BA9FC",
"~#	c #76B4FF",
"{#	c #94C7FF",
"]#	c #8BBFF9",
"^#	c #86BCFA",
"/#	c #8BC8FF",
"(#	c #79BAFE",
"_#	c #63A6ED",
":#	c #6AAEF9",
"<#	c #6BAEFC",
"[#	c #6EB3FF",
"}#	c #72B6FF",
"|#	c #70B2FF",
"1#	c #6BADFF",
"2#	c #6BABFF",
"3#	c #6FB0FF",
"4#	c #74B5FF",
"5#	c #77B5FF",
"6#	c #7AB8FF",
"7#	c #79B4FF",
"8#	c #77B2FF",
"9#	c #6EA9F9",
"0#	c #6DA8F8",
"a#	c #69A6F7",
"b#	c #68A6FB",
"c#	c #68A8FF",
"d#	c #69ABFF",
"e#	c #6BACFF",
"f#	c #90C2FD",
"g#	c #85BFFE",
"h#	c #89C6FF",
"i#	c #7EBFFF",
"j#	c #6BAEF4",
"k#	c #67ABF4",
"l#	c #66ABF6",
"m#	c #6AAFFD",
"n#	c #6DB4FF",
"o#	c #6EB2FF",
"p#	c #69ADFF",
"q#	c #67A9FF",
"r#	c #6FB3FF",
"s#	c #70B3FF",
"t#	c #78B1FE",
"u#	c #72ABFA",
"v#	c #6FAAFA",
"w#	c #6BA8F9",
"x#	c #68A6F9",
"y#	c #66A6FD",
"z#	c #66A8FF",
"A#	c #67AAFF",
"B#	c #66ABFF",
"C#	c #92C3FD",
"D#	c #96C8FF",
"E#	c #80BAF9",
"F#	c #87C4FF",
"G#	c #85C4FF",
"H#	c #76B9FF",
"I#	c #66AAF3",
"J#	c #63A8F3",
"K#	c #66ABF9",
"L#	c #6DB1FF",
"M#	c #6CAEFF",
"N#	c #62A4FA",
"O#	c #6CB0FF",
"P#	c #72B3FF",
"Q#	c #74B2FF",
"R#	c #76B1FF",
"S#	c #75B0FE",
"T#	c #73AEFE",
"U#	c #6EABFC",
"V#	c #6AA8FB",
"W#	c #66A9FF",
"X#	c #65ABFF",
"Y#	c #89BAF4",
"Z#	c #7FBAF6",
"`#	c #87C3FF",
" $	c #87C7FF",
".$	c #7FC0FF",
"+$	c #6BAEF5",
"@$	c #67AAF8",
"#$	c #6FB2FF",
"$$	c #75B8FF",
"%$	c #69AAFE",
"&$	c #63A4F8",
"*$	c #6AACFF",
"=$	c #72B4FF",
"-$	c #74B7FF",
";$	c #75B2FF",
">$	c #74B1FF",
",$	c #70AFFE",
"'$	c #6BACFC",
")$	c #67A9FD",
"!$	c #66A8FC",
"~$	c #65A9FE",
"{$	c #63A9FF",
"]$	c #82B3ED",
"^$	c #91C4FD",
"/$	c #86BEFB",
"($	c #87C1FF",
"_$	c #82C2FF",
":$	c #72B3F7",
"<$	c #69ACF2",
"[$	c #68AAF4",
"}$	c #70B2FE",
"|$	c #77B8FF",
"1$	c #6EACFF",
"2$	c #66A7FB",
"3$	c #76B7FF",
"4$	c #76B5FF",
"5$	c #72B1FF",
"6$	c #6EAFFF",
"7$	c #6BAEFD",
"8$	c #68ABFC",
"9$	c #65A9FC",
"0$	c #62A8FD",
"a$	c #8CBDF7",
"b$	c #95C7FF",
"c$	c #96CAFF",
"d$	c #89C1FE",
"e$	c #85C1FF",
"f$	c #85C2FF",
"g$	c #78B7FA",
"h$	c #6FB0F4",
"i$	c #70B0FA",
"j$	c #6CADFF",
"k$	c #65A7FB",
"l$	c #6EB0FF",
"m$	c #73B4FF",
"n$	c #6FAEFD",
"o$	c #6CAFFD",
"p$	c #67ACFA",
"q$	c #64A8F9",
"r$	c #89BAF2",
"s$	c #88B9F1",
"t$	c #8FC2FB",
"u$	c #9ACEFF",
"v$	c #97CEFF",
"w$	c #8AC2FB",
"x$	c #87BFFA",
"y$	c #82BEFD",
"z$	c #78B5F6",
"A$	c #72AEF4",
"B$	c #72B1F8",
"C$	c #66A8FE",
"D$	c #63A5F9",
"E$	c #6FB1FF",
"F$	c #6DAFFB",
"G$	c #74B6FF",
"H$	c #76B8FF",
"I$	c #73B7FF",
"J$	c #6FB3FE",
"K$	c #65AAF7",
"L$	c #90C1F9",
"M$	c #87B8F0",
"N$	c #8BBEF5",
"O$	c #9DD1FF",
"P$	c #8CC3FB",
"Q$	c #7FBBFA",
"R$	c #7BB5FE",
"S$	c #7CB7FF",
"T$	c #61A2F4",
"U$	c #63A4F6",
"V$	c #6DAEFF",
"W$	c #77B9FF",
"X$	c #75B7FF",
"Y$	c #6AACF8",
"Z$	c #6EB0FC",
"`$	c #78BAFF",
" %	c #71B5FC",
".%	c #6CAFF6",
"+%	c #8FC2F9",
"@%	c #94C7FC",
"#%	c #9ED3FF",
"$%	c #96CBFF",
"%%	c #7FB6F6",
"&%	c #79B2F5",
"*%	c #7BB4FB",
"=%	c #81BAFF",
"-%	c #7BBAFF",
";%	c #65A4F4",
">%	c #62A3F3",
",%	c #6FB1FD",
"'%	c #7ABDFF",
")%	c #7DC0FF",
"!%	c #78B9FD",
"~%	c #6AADF3",
"{%	c #91C4FB",
"]%	c #8EC1F6",
"^%	c #9CCFFF",
"/%	c #9FD2FF",
"(%	c #92C7FB",
"_%	c #84BAF6",
":%	c #7FB6F9",
"<%	c #83BBFF",
"[%	c #86C1FF",
"}%	c #6CAAF7",
"|%	c #66A5F2",
"1%	c #6BAAF7",
"2%	c #79BBFF",
"3%	c #7DBFFF",
"4%	c #74B7FE",
"5%	c #73B6FD",
"6%	c #78B8FF",
"7%	c #83C2FF",
"8%	c #7EBDFF",
"9%	c #76B5FA",
"0%	c #95C7FA",
"a%	c #A1D3FF",
"b%	c #9FD1FF",
"c%	c #9BCDFE",
"d%	c #93C6FD",
"e%	c #8CBEF9",
"f%	c #86B9F8",
"g%	c #83B8FA",
"h%	c #87BDFF",
"i%	c #86BEFF",
"j%	c #8FC9FF",
"k%	c #6EAAF2",
"l%	c #71B1F9",
"m%	c #7CBCFF",
"n%	c #84C4FF",
"o%	c #7EBEFF",
"p%	c #76B6FD",
"q%	c #73B3FA",
"r%	c #7AB9FE",
"s%	c #84C1FF",
"t%	c #95C8FD",
"u%	c #94C6FB",
"v%	c #96C8FB",
"w%	c #9DCDFE",
"x%	c #A2D2FF",
"y%	c #A5D5FF",
"z%	c #9FCFFF",
"A%	c #98CAFD",
"B%	c #91C2FC",
"C%	c #8BBDF8",
"D%	c #86BBFD",
"E%	c #88BDFF",
"F%	c #89BFFF",
"G%	c #94CBFF",
"H%	c #8DC6FF",
"I%	c #84BDFF",
"J%	c #70ACF2",
"K%	c #71B0F5",
"L%	c #83C4FF",
"M%	c #86C5FF",
"N%	c #74B3F8",
"O%	c #8CC6FF",
"P%	c #97C9FE",
"Q%	c #97C9FA",
"R%	c #9CCCFC",
"S%	c #A3D2FF",
"T%	c #ABDAFF",
"U%	c #A3D1FF",
"V%	c #98C7FF",
"W%	c #90C1FB",
"X%	c #8ABCFB",
"Y%	c #89BEFF",
"Z%	c #92C8FF",
"`%	c #8EC6FF",
" &	c #83BDFC",
".&	c #78B4F3",
"+&	c #74B1F2",
"@&	c #79B6F9",
"#&	c #7CB7F9",
"$&	c #81BBFB",
"%&	c #8BC1FF",
"&&	c #A1D0FC",
"*&	c #AFDBFF",
"=&	c #9ECBFF",
"-&	c #96C4FF",
";&	c #8DBDFB",
">&	c #8ABBFD",
",&	c #8ABCFF",
"'&	c #8CBFFF",
")&	c #81BCF8",
"!&	c #79B5F4",
"~&	c #7AB7F8",
"{&	c #88C5FF",
"]&	c #8FC3FF",
"^&	c #9ED1FF",
"/&	c #9DCDFD",
"(&	c #9CCBF9",
"_&	c #A1CDFA",
":&	c #A9D4FF",
"<&	c #AFDAFF",
"[&	c #ADD8FF",
"}&	c #AAD6FF",
"|&	c #9AC9FF",
"1&	c #90C1FC",
"2&	c #8CBEFD",
"3&	c #95C9FB",
"4&	c #99CEFF",
"5&	c #7AB6F4",
"6&	c #7AB6F5",
"7&	c #8DC8FF",
"8&	c #81B8F9",
"9&	c #7EB4F4",
"0&	c #93C5FF",
"a&	c #A1D0FF",
"b&	c #A2D1FF",
"c&	c #A1D1FF",
"d&	c #9FCDFE",
"e&	c #9ECAF7",
"f&	c #A1CCF7",
"g&	c #A8D3FD",
"h&	c #B0DBFF",
"i&	c #AED9FF",
"j&	c #8FC0FB",
"k&	c #96CAFC",
"l&	c #9ACFFF",
"m&	c #98CDFF",
"n&	c #8EC5FE",
"o&	c #84BCF7",
"p&	c #7DB8F4",
"q&	c #7CB6F5",
"r&	c #7FB9F8",
"s&	c #91CBFF",
"t&	c #95CCFF",
"u&	c #7FB2F1",
"v&	c #8DC0FF",
"w&	c #92C3FE",
"  . + @ # $ % & * = - ; > , ' ) ! ~ { ] ^ / ( / _ : < [ } | 1 2 ",
"3 4 5 6 # 7 8 9 + 0 a b c < d e f g h i j b ( k l : m n o p q r ",
"s t u v # w x 9 y 5 z A B C D E C F G H I J K L M ; N O P Q R S ",
"T U V W # w X Y Y + @ Z G `  ...: +.@.#.$.J K %.&.*.=.-.O ;.>.,.",
"'.'.).!.~.{.].^./.(.@ Z @._. .:.: <.[.}.%.|.|.1.2.3.*.4.5.6.7.8.",
"9.0.a.b.c.d.e.f.g.h.i.j.k.l.m.] ] n.o.p.q.1.r.2.s.t.u.v.4. .w.x.",
"y.z.A.B.C.].D.E.F.G.H.I.1.J.K.L.v.L.l.M.N.O.P.Q.R.s.|.S.T.+.U.V.",
"W.X.Y.Z.`. +.+ +++@+#+$+I.%+&+S.J 3.&.*+=+-+;+>+,+'+)+!+$.~+#.M ",
"{+]+^+/+(+_+.+:+<+[+}+].|+1+2+3+S.3.J 4+5+6+7+8+9+0+,+a+I.b+c+&.",
"d+d+e+f+(+g+:+h+i+j+k+l+m+i.e.8 @ n+n+(.o+p+q+r+s+t+u+v+w+a+7 x+",
"y+z+A+C.B+C+D+E+F+G+H+I+:+J+K+L+y + K 1+M+N+O+P+Q+R+S+T+r+U+].V+",
"W+X+Y+].Z+`+H+ @.@+@@@#@$@%@&@*@=@V 1+i..+-@;@>@,@'@)@!@~@{@]@^@",
"/@(@# d._@:@H+<@<@[@}@|@1@:+2@3@4@a.5@w D.6@7@8@9@0@a@b@c@G+G+d@",
"e@f@$ g@h@i@H+j@k@l@m@n@o@p@q@_+r@s@t@.+E.u@b@v@w@x@y@z@A@B@p@C@",
"D@O.8 {@E@F@G@H@z@k@l@k@I@J@K@*@L@M@N@O@P@h+Q@w@R@S@T@U@V@W@X@Y@",
"Z@= `@h.m+ #.#+#k@@#####$#%#&#*#=#-#-#6@q@.@Y@;#>#,#>#'#$#)#!#~#",
"I {#]#^#E@/#(#_#:#<#[#}#|#1#2#3#4#l@l@5#a@6#7#8#9#0#a#)#b#c#d#e#",
"/ &.f#& g#h#i#j#k#l#m#n#o#p#q#q#r#r#s#@#x@~#8#t#u#v#w#x#y#z#A#B#",
"C#u.D#& E#F#G#H#I#J#K#L#@#M#y#N#O#L#s#P#k@Q#R#8#S#T#U#V#y#z#W#X#",
"Y#J v.8 Z#`# $.$+$I#@$#$$$@#%$&$*$L#=$-$4#l@;$~#p@>$,$'$)$!$~${$",
"]$^$v.(./$($F#_$:$<$[$}$|$4#1$2$!$p#|#$$3$4$k@5$Q@x@k@6$7$8$9$0$",
"]$a$b$c$# d$e$f$g$h$+#i$4$l@U@j$k$~$d#l$m$m$5$n$k@x@=$=$#$o$p$q$",
"r$s$t$u$v$w$x$9+y$z$A$B$5#5#Y@[@j$C$D$!$6$m$P#E$F$}$G$H$I$J$:#K$",
"L$M$N$Z@O$P$R.;+9+Q$[+I+R$S$h+ #4#d#T$U$V$##W$X$Y$Z$G$`$W$ %.%k#",
"+%M.~+@%Z@#%$%P$i.#+%%&%*%6@=%:+-%6$;%>%'$G$`$W$,%G$H$H#'%)%!%~%",
"{%Z ]%@%^%/%u.(%* 2+_%V+:%=%<%*@[%a@}%|%1%=$2%3%G$4%5%6%i#7%8%9%",
"L {%[.0%M a%b%c%v.d%e%f%g%C.h%i%j%E.)@k%8@l%m%n%o%p%q%r%s%F#[%i+",
"&.t%u%v%w%x%y%y%z%A%B%C%).D%E%F%G%H%I%:@J%K%-%L%M%r%N%i@i+%@E@O%",
"u.J P%Q%R%S%_ T%U%N V%W%X%).E%Y%Z%Z%`% &.&+&@&8%/# #P+#&$&^.%&# ",
"^%3.L.4.5.&&[ *&6.n =&-&;&>&,&'&5 |.G%`%)&!&.&~&{&g@]@N+%%Y y+]&",
"Z@^&*./&(&_&:&<&[&}&U%|&1&2&'&y+k.3&4&G%H.Z#5&6&]@7&H%8&9&W+0&W.",
"a&b&c&d&e&f&g&<&h&i&6.m A j&y.]+{%k&l&m&n&o&p&q&r&s&t&=@u&v&D#w&"};
