/* XPM */
static char *result[] = {
/* columns rows colors chars-per-pixel */
"40 40 102 2 ",
"   c #0F1D18",
".  c #141C1A",
"X  c #1C1D1E",
"o  c #13231D",
"O  c #1E2021",
"+  c #162C24",
"@  c #173027",
"#  c #19352A",
"$  c #1A3B2E",
"%  c #1C3C30",
"&  c #232326",
"*  c #252528",
"=  c #2B2A2D",
"-  c #2E2E31",
";  c #343237",
":  c #3A383D",
">  c #1D4234",
",  c #224A3A",
"<  c #2E483F",
"1  c #403D43",
"2  c #2F4840",
"3  c #324C44",
"4  c #3B4B47",
"5  c #2B5B48",
"6  c #345147",
"7  c #355249",
"8  c #38544C",
"9  c #375A4E",
"0  c #39594E",
"q  c #3A5C51",
"w  c #2D614D",
"e  c #346553",
"r  c #396355",
"t  c #346D57",
"y  c #396C59",
"u  c #34745B",
"i  c #3A735E",
"p  c #35795E",
"a  c #3B7560",
"s  c #377D61",
"d  c #397E63",
"f  c #46444A",
"g  c #4B484E",
"h  c #484F51",
"j  c #514F55",
"k  c #4D5758",
"l  c #535057",
"z  c #55535A",
"x  c #555B5E",
"c  c #5B5C62",
"v  c #605D65",
"b  c #64636B",
"n  c #68676F",
"m  c #68686F",
"M  c #656371",
"N  c #686675",
"B  c #6B6A74",
"V  c #6E6C79",
"C  c #716F7B",
"Z  c #74727D",
"A  c #78757F",
"S  c #3A8165",
"D  c #3D8569",
"F  c #3F896C",
"G  c #61965F",
"H  c #6C9E5F",
"J  c #41856B",
"K  c #418B6E",
"L  c #498D68",
"P  c #549468",
"I  c #5C9D6E",
"U  c #428E71",
"Y  c #459274",
"T  c #479778",
"R  c #489779",
"E  c #4A9B7C",
"W  c #509A73",
"Q  c #599E70",
"!  c #66A168",
"~  c #6BAB72",
"^  c #86AD5C",
"/  c #8DB25D",
"(  c #93B65F",
")  c #96B85D",
"_  c #C6D55C",
"`  c #CAD75A",
"'  c #CEDB5B",
"]  c #D1DC5A",
"[  c #797681",
"{  c #7D7B85",
"}  c #817E89",
"|  c #4D9F80",
" . c #4FA383",
".. c #50A585",
"X. c #52A887",
"o. c #56AE8C",
"O. c #58B28E",
"+. c #5CB995",
"@. c #5FBE98",
"#. c #60BF99",
"$. c #62C29B",
"%. c #84828C",
/* pixels */
"%.%.%.%.%.%.%.%.%.%.} [ [ [ A A A A A A [ A A [ Z [ A [ { %.%.%.%.%.%.%.%.%.%.%.",
"%.%.%.%.%.%.%.%.%.} h 2 3 7 6 6 6 9 0 9 q q 9 3 2 3 3 < - Z %.%.%.%.} %.%.%.%.%.",
"%.%.%.%.%.%.%.%.%.} 3 u s D J Y E  .E E E R E Y D S S p o B %.%.%.%.%.%.%.%.%.%.",
"%.%.%.%.%.%.%.%.} } 3 p D T Y E E E .... . .E U Y K F s . m %.%.%.%.%.%.%.%.%.%.",
"%.%.%.%.%.%.%.%.%.} 3 S K E | R R R E Y E Y D Y ..R K S   v %.%.%.%.%.%.%.%.%.%.",
"%.%.%.%.%.%.%.%.} { 4 K E ..o.Q ) H ) H ( H ( L E ..E J o x %.%.%.%.%.%.%.%.%.%.",
"%.%.%.%.%.%.%.%.%.} 8 Y E ..O.~ ] / ' / ' / ] P E E R Y + v %.%.%.%.%.%.%.%.%.%.",
"%.%.%.%.%.%.%.%.%.[ q Y E ..+.~ ] / ' / ' / ' I ......E # z %.%.%.%.%.%.%.%.%.%.",
"%.%.%.%.%.%.%.%.%.Z 9 E ....+.~ ` ^ _ ^ _ ^ _ I  .E E ..# g %.%.%.%.%.%.%.%.%.%.",
"%.%.%.%.%.%.%.} %.Z 9 ..| ..+.W G P ! P ! P ! E ..E E ..$ g %.%.%.%.%.%.%.%.%.%.",
"%.%.} %.%.%.%.%.%.Z r  .| ..o.R U  . . . . . . ... ...| , g %.%.%.%.%.%.%.%.%.%.",
"%.%.%.%.%.%.%.%.%.Z r  ......... . . . . . . . ..... ..., : %.%.%.%.%.%.%.} %.%.",
"%.%.%.%.%.%.%.%.%.Z r ......| .. . . . . . . . . . . . ., ; %.%.%.%.%.%.%.%.%.%.",
"%.%.%.%.%.%.%.%.%.b e ....E .... . . . . . . . . . . .X.2 ; %.%.%.%.%.%.%.%.%.%.",
"%.%.%.%.%.%.%.%.%.c e ....E ..|  . . ... . .X. . . . . .5 - %.%.%.%.%.%.%.%.%.%.",
"%.%.%.%.%.%.%.%.%.b e .......... . . . . . . . . . . .X.w * { %.%.%.%.%.%.%.%.} ",
"%.%.%.%.%.%.%.%.%.N y .. . ... ... . . .| ....| ........e O } %.%.%.%.%.%.%.%.%.",
"%.%.%.%.%.%.%.%.%.N y .. . . . . . . .......| ....| ....t & } %.%.%.%.%.%.%.%.%.",
"%.%.%.%.%.%.%.%.%.B y X. . . . . . . . .....| ..........i O [ %.%.%.%.%.%.%.%.%.",
"%.%.%.%.%.%.%.%.%.n a .. . . . . ... . .E ......E ..| ..a . A %.%.%.%.%.%.%.%.%.",
"%.%.%.%.%.%.%.%.%.b i X. . . . . . . . ... .X.O.O.O.o.X.d . Z %.} } } %.%.%.%.%.",
"%.%.%.%.%.%.%.%.%.b i .. . ... ... . . .....+.#.@.$.O.E J X Z %.} } } } %.%.%.%.",
"%.%.%.%.[ Z A %.%.c a X. . .|  . . . . . .X.$...E ..E Y J X B %.} C } } %.%.%.%.",
"%.%.%.%.Z M V %.%.c d X. ...R |  . ... .| ..#.......E Y U . m %.} N V } %.%.} } ",
"%.%.%.%.{ V Z  .%.c J .... . . . . . . ...E X.Y U Y U E Y . b %.} } } } } } } } ",
"%.%.%.%.%.%.} } %.c J .. . . . . ... . . . .| E R R E ..T o b %.} } } } } } } } ",
"%.%.%.{ } } } } %.v d .. . ... . . . . . . . . .......X.W o x %.} } }  .} } } } ",
"%.{ V N } } } } } c K .. . . . . .| E  .E E  ...E E ..E E + z %.} } } V } C } } ",
"} } } C } } } } %.k K .. .| | | |  .E .. .E  . . .E  . .| + j } %.%.%.V M V %.%.",
"} } } } } } } } %.k K .. .E E | E  . . . . . . . . . .| R @ l %.%.%.%.[ Z { %.%.",
"} } %.%.%.%.} } %.k U  . .E |  . . . .W  . . .E E ..E E E # f %.%.%.%.%.%.%.%.%.",
"} } %.%.%.%.%.%.%.z d R  .| |  .Y |  .| E | R E E Y E  . .% 1 %.%.%.%.%.%.%.%.%.",
"} } } } %.%.%.%.%.v u Y Y U  .E Y  . .E Y U T Y K D K E E $ : %.%.%.%.%.%.%.%.%.",
"} } } } %.%.%.%.} z u Y F d U U K Y K U K S D U D S S S S # : %.%.%.%.%.%.%.%.%.",
"%.%.%.%.%.%.%.%.} h i D d F F d d D Y D s F D U F F S S S $ = %.%.%.%.%.%.%.%.%.",
"%.%.%.%.%.%.%.%.} g u d d Y T d d T T S S S S s S S S F S > = %.%.%.%.%.%.%.%.%.",
"%.%.%.%.%.%.%.%. .4 u S D U F d d U D d d d d d s S s S S , = %.%.%.%.%.%.%.%.%.",
"%.%.%.%.%.%.%.%.} 4 u S F S d d d K F d d d d d S s s S S , & %.%.%.%.%.%.%.%.%.",
"%.%.%.%.%.%.%.%.} 1 s d d d d d d U J J J d d d s S S D D , X { %.%.%.%.%.%.%.%.",
"} %.%.%.%.%.%.%.} g S D d d d d d d d J J E R d s s s D D w X [ %.%.%.%.%.%.%.%."
};
