/* XPM */
static char *result[] = {
/* columns rows colors chars-per-pixel */
"40 40 114 2 ",
"   c #040303",
".  c #090708",
"X  c #0C0C0C",
"o  c #100F10",
"O  c #0C1A14",
"+  c #141414",
"@  c #1B1B1B",
"#  c #0E2019",
"$  c #12241C",
"%  c #172620",
"&  c #1F2120",
"*  c #142B22",
"=  c #1A2D26",
"-  c #1D2E29",
";  c #173127",
":  c #1B332A",
">  c #1C3B2E",
",  c #1E3E31",
"<  c #232323",
"1  c #282727",
"2  c #232826",
"3  c #262D2A",
"4  c #2B2B2B",
"5  c #29312E",
"6  c #20382F",
"7  c #283530",
"8  c #233D33",
"9  c #293B34",
"0  c #333333",
"q  c #323A37",
"w  c #3B3B3B",
"e  c #234336",
"r  c #244739",
"t  c #2B443A",
"y  c #244C3C",
"u  c #2B4A3E",
"i  c #39443F",
"p  c #2D4C41",
"a  c #3B4444",
"s  c #324B43",
"d  c #394C45",
"f  c #3C4E4A",
"g  c #2A5444",
"h  c #295A47",
"j  c #2C5D4A",
"k  c #315246",
"l  c #335549",
"z  c #39504A",
"x  c #325B4C",
"c  c #3B5A50",
"v  c #2E624E",
"b  c #2F6650",
"n  c #336552",
"m  c #336B55",
"M  c #346F58",
"N  c #396F59",
"B  c #35725A",
"V  c #39775F",
"C  c #3B7B61",
"Z  c #434343",
"A  c #434946",
"S  c #434649",
"D  c #444C4D",
"F  c #4B4B4B",
"G  c #43524F",
"H  c #4B4D51",
"J  c #455250",
"K  c #4D5153",
"L  c #535353",
"P  c #585757",
"I  c #54555A",
"U  c #58575E",
"Y  c #55585C",
"T  c #5B5B5C",
"R  c #5C5C63",
"E  c #605F66",
"W  c #5C6C65",
"Q  c #497766",
"!  c #437D66",
"~  c #636364",
"^  c #65636B",
"/  c #69666F",
"(  c #6B6C6C",
")  c #6E706F",
"_  c #656371",
"`  c #686675",
"'  c #676C71",
"]  c #6C6973",
"[  c #6E6C79",
"{  c #706D76",
"}  c #716F79",
"|  c #6E7170",
" . c #737373",
".. c #74727C",
"X. c #79767F",
"o. c #7B7B7B",
"O. c #3E8367",
"+. c #42876B",
"@. c #438A6D",
"#. c #479374",
"$. c #4A9878",
"%. c #767380",
"&. c #797682",
"*. c #7C7A84",
"=. c #817E89",
"-. c #53A986",
";. c #55AE89",
":. c #838383",
">. c #84828C",
",. c #8B8B8B",
"<. c #939393",
"1. c #9B9B9B",
"2. c gray64",
"3. c gray67",
/* pixels */
">.>.>.>.>.>.>.>.>.>.>...^ / / ( ] ] ] ]  .|  .{ {  . ...>.>.>.>.>.>.>.>.>.>.>.>.",
">.>.>.>.>.>.>.>.>.>.] z x x x x l k k x x i x k k k k c ' >.>.>.>.>.>.>.>.>.>.>.",
">.>.>.>.>.>.>.>.>.*.a $.@.j v v v v v v n v n G n b M -.Q ..>.>.>.>.>.>.>.>.>.>.",
">.>.>.>.>.>.>.>.>.&.s @.W  .) ) ( ( ~ ~ T T T P L K A N ! / >.>.>.>.>.>.>.>.>.=.",
">.>.>.>.>.>.>.>.>.*.s m  .3.3.2.2.1.1.<.<.,.=.=.:.o.( p m ^ >.>.>.>.>.>.>.>.>.>.",
">.>.>.>.>.>.>.>.>.&.u N  .3.2.1.1.<.<.,.,.,.:.o.o.o.( u n ~ >.>.>.>.>.>.>.>.>.>.",
">.>.>.>.>.>.>.>.>.&.u m | 2.1.1.<.<.,.,.:.=.:.o.o. .~ u m R >.>.>.>.>.>.>.>.>.>.",
">.>.>.>.>.>.>.>.>.o.s m ) 1.<.<.<.,.,.:.:.$.:.o. . .~ t M R >.>.>.>.>.=.>.>.>.>.",
">.>.>.>.>.>.>.>.>...u m  .1.<.<.,.:.:.:.o.o. .) ( ( ~ 9 m Y >.>.=.1.=.=.1.=.>.>.",
">.>.>.>.>.>.>.>.>.} p m ) <.,.,.,.:.:.o.o. . .( ( ( ~ 9 m I >.>.=.=.=.=.=.=.>.>.",
">.>.=.>.>.>.>.>.>.} u m ( ,.,.:.:.o.o.o. . .( ( ~ ~ P 9 B I >.>.=.=.=.=.=.=.=.>.",
">.>.>.>.>.>.>.>.>.} - : ~ ,.:.:.:.o. . .) ( ( ~ ~ T P 9 B K >.>.=.=.2.=.=.1.=.=.",
">.>.>.>.>.>.>.>.>.] u V i =.:.o.o. . .) ( ( ~ ~ T U I 7 B J >.>.=.1.=.=.=.=.=.=.",
">.>.>.>.>.>.>.>.>.E g ;.d o.o.o. . .( ( ~ ~ T T P P H 5 B J >.>.=.=.=.=.1.=.=.1.",
">.>.>.>.>.>.>.>.>.R g +.q o.o. . .( ( ~ ~ ~ P P P L F 4 N F -.=.=.=.=.=.=.=.=.=.",
">.>.>.>.>.>.>.>.>.^ = : L  . .) ( ( ~ ~ E P P L L F F 4 N F =.=.=.=.1.=.=.=.=.=.",
"<.=.=.=.>.>.>.>.>./ u j T  .) ( ( ~ ~ T P P L L F F Z 3 M z =.>.=.=.=.=.=.=.=.=.",
"=.=.=.=.>.>.>.>.>.^ h x T ) ( ~ ~ T T P L L F F F Z Z 1 M z *.>.=.=.1.=.=.=.=.1.",
"=.=.=.=.>.>.>.>.>.^ : : P ( ~ ~ ~ P P P L F F Z Z Z w 2 m z *.>.=.=.=.=.1.=.=.=.",
"=.=.-.>.>.>.>.>.>.^ y u 0 ~ ~ ~ P P L L F F Z Z w w w & m k *.>.1.=.=.=.=.=.=.=.",
"1.=.=.=.>.>.>.>.>.E n -.q E T P P L F F F Z Z Z w 0 q & b k X.>.=.=.=.=.>.>.>.>.",
"=.=.=.=.>.>.>.>.,.R m #.7 T T P L F F F Z Z w w w q 0 & v x X.>.=.=.=.=.>.>.>.>.",
"=.=.1.=.*.} ..>.>.R 8 8 0 P L L F F Z Z w w w w 0 0 4 < n l  .>.-.=.%.*.>.>.>.>.",
"1.=.=.=.%._ ] >.>.U e 8 F L L F F F Z Z w w 0 0 0 4 4 @ j l } >.*.` _ *.>.>.>.>.",
"=.=.=.=.=.=.%.=.>.R b g S L F F Z Z w w w 0 0 0 4 4 1 @ g x ] >.=.%.[ *.>.>.>.>.",
"=.=.=.=.=.=.=.=.=.I g r Z F Z F Z w w w 0 0 4 4 4 < < @ g x ] >.>.=.>.>.>.>.>.>.",
"=.=.=.=.=.<.=.=.>.I * $ 0 F Z w w w 0 0 0 4 4 1 < < & + g n / >.>.>.=.*.*.*.>.>.",
"=.=.=.%.=.=.=.=.>.L m C 4 Z Z w w w 0 0 4 4 1 < < & @ + y n / >.>.>.>.%.[ %.>.>.",
"=.*.%.%.%.=.=.=.>.H C $.4 w w w 0 0 0 4 4 1 < < @ @ @ + r n R >.>.>.=.[ _ [ >.>.",
"=.%.%.*.=.=.=.=.>.H C N & w w 0 0 4 4 1 1 < & @ @ @ + o e m R >.>.>.>.*.%.*.>.>.",
"=.=.=.1.=.=.=.=.>.H ; % 4 w 0 0 4 4 4 1 < & $ @ @ + + X , N R >.>.>.>.>.=.>.>.>.",
"=.=.=.=.=.=.1.=.>.D j 9 4 0 0 4 4 1 < & < & @ + @ + + X > B Y >.>.>.>.>.>.>.>.>.",
"=.=.=.1.>.>.>.>.>.U B r 4 0 4 4 2 < < < @ @ @ + + o o X : B K >.>.>.>.>.>.>.>.>.",
"=.=.=.=.>.>.>.>.*.H B 8 4 4 4 < < < @ @ @ + + + o X X . ; B K >.>.>.>.>.>.>.>.>.",
"=.=.=.=.>.>.>.>.*.H B 8 < 4 < < % @ @ @ + + + o o X X . * C J >.>.>.>.>.>.>.>.>.",
"=.1.=.=.>.>.>.>.=.H B 6 < < < & @ @ @ + + + o X X . . . $ C J >.>.>.>.>.>.>.>.>.",
"=.=.>.>.>.>.=.>.*.a B 6 < < @ @ @ @ o + o o X X . .     # @.D >.>.>.>.>.>.>.>.>.",
"1.=.=.=.>.>.>.>.*.a V - @ < @ @ @ + + o o X X X . .     # #.J >.>.>.>.>.>.>.>.>.",
"=.=.=.=.>.>.>.>.*.D V - @ @ @ + + o o X X X X X         O #.J >.>.>.>.>.>.>.>.>.",
"=.=.1.=.>.>.>.>.*.S V - + @ @ + o o o X X X X o         O O.f *.>.>.>.>.>.>.>.>."
};
