/* XPM */
static char * player_xpm[] = {
"32 32 110 2",
"  	c None",
". 	c #B32A32",
"+ 	c #A1252C",
"@ 	c #9A232B",
"# 	c #AE2931",
"$ 	c #B22A31",
"% 	c #B83F2B",
"& 	c #AD3C28",
"* 	c #B33E29",
"= 	c #A83A26",
"- 	c #B63E2B",
"; 	c #C1422E",
"> 	c #CB5C2D",
", 	c #F8A21D",
"' 	c #FABF28",
") 	c #D5732D",
"! 	c #D0652D",
"~ 	c #B32A31",
"{ 	c #F8A21C",
"] 	c #F8A21E",
"^ 	c #FABD26",
"/ 	c #F9B627",
"( 	c #E59429",
"_ 	c #ECA028",
": 	c #F79C20",
"< 	c #F89A20",
"[ 	c #F9A71F",
"} 	c #FAB824",
"| 	c #F9BB25",
"1 	c #F9BF27",
"2 	c #B32A33",
"3 	c #F7A11D",
"4 	c #F89D20",
"5 	c #F89424",
"6 	c #F8AA20",
"7 	c #F9B323",
"8 	c #FABB26",
"9 	c #B22A32",
"0 	c #9B232A",
"a 	c #7B674F",
"b 	c #FAD9A6",
"c 	c #F79523",
"d 	c #F8AB20",
"e 	c #FCBD27",
"f 	c #D26A2D",
"g 	c #962129",
"h 	c #A4262D",
"i 	c #CFC8BC",
"j 	c #FEF8ED",
"k 	c #F89F1F",
"l 	c #F79324",
"m 	c #F89921",
"n 	c #F9A91F",
"o 	c #ED9320",
"p 	c #9D2E26",
"q 	c #A7272D",
"r 	c #F9AE3A",
"s 	c #F89423",
"t 	c #F8A11E",
"u 	c #9C3124",
"v 	c #F79326",
"w 	c #F8A11D",
"x 	c #F79821",
"y 	c #F79325",
"z 	c #F69F1D",
"A 	c #F59D1E",
"B 	c #9A3025",
"C 	c #B12A30",
"D 	c #F79721",
"E 	c #F79623",
"F 	c #F89E1F",
"G 	c #F78C27",
"H 	c #F89F1E",
"I 	c #F89B20",
"J 	c #F79025",
"K 	c #CC542A",
"L 	c #E58023",
"M 	c #C64B2D",
"N 	c #8C1F26",
"O 	c #AE2830",
"P 	c #B22932",
"Q 	c #F78E27",
"R 	c #F7A01E",
"S 	c #EB8C21",
"T 	c #D56728",
"U 	c #B73231",
"V 	c #B02931",
"W 	c #932027",
"X 	c #DE7525",
"Y 	c #B8372E",
"Z 	c #D06D22",
"` 	c #D56628",
" .	c #C9502B",
"..	c #B62F31",
"+.	c #B42B32",
"@.	c #AB282F",
"#.	c #982826",
"$.	c #CC6622",
"%.	c #D46228",
"&.	c #F8A31D",
"*.	c #D46328",
"=.	c #AF2931",
"-.	c #992329",
";.	c #992A27",
">.	c #C96522",
",.	c #F9A21D",
"'.	c #A1252D",
").	c #AD2E2D",
"!.	c #D46727",
"~.	c #B32B32",
"                                                                ",
"                                                                ",
"                                                                ",
"                                                                ",
"                                                                ",
"                                                                ",
"                                                                ",
"                        .                                       ",
"                      + @ # $                                   ",
"                    % & * = - ; ; >                             ",
"                  , , , , , , , , ' ) ! ~                       ",
"            { , , , , , , , , , , ] ^ / ( _                     ",
"          , , , , , , : < , , , , , , [ } | 1           . . 2   ",
"      3 , , , , , , , 4 5 < , , , , , , , 6 7 8       9 0 .     ",
"      { , , , a b , , , c c , , , , , , , , , d e f . g h       ",
"    , , , , , i j , , , k l m , , , , , , , , , n o p q .       ",
"    , , , , , r r , , , c s t , , , , , , , , , , , u $ .       ",
"    v c t , w , , , , x y , z A w , , , , , , , , z B C .       ",
"      D E F G H , , I J , , K . L 3 , , , , , , , M . N O P     ",
"      3 l Q 4 , R S , , , , T U . L , , , , , ,       V W . 2   ",
"        , , , , X Y Z , , , , `  ..., , , , ,           P P     ",
"          { , , +.@.#.$., , , , , %., { &.                      ",
"              ] *.=.-.;.>., , ,.                                ",
"                  . # '.).!.                                    ",
"                    . . ~.                                      ",
"                                                                ",
"                                                                ",
"                                                                ",
"                                                                ",
"                                                                ",
"                                                                ",
"                                                                "};
