/* XPM */
static char *result[] = {
/* columns rows colors chars-per-pixel */
"40 40 162 2 ",
"   c #040303",
".  c #0F0604",
"X  c #0C0C0B",
"o  c #100603",
"O  c #170E0B",
"+  c #181615",
"@  c #260E06",
"#  c #2D150E",
"$  c #34140A",
"%  c #241D1C",
"&  c #2B1B19",
"*  c #341C14",
"=  c #27221C",
"-  c #3B231D",
";  c #1C2B34",
":  c #232222",
">  c #292527",
",  c #272729",
"<  c #2B2A2B",
"1  c #332D27",
"2  c #332E2A",
"3  c #36312D",
"4  c #3B342C",
"5  c #202C32",
"6  c #2F2F31",
"7  c #312F31",
"8  c #21343E",
"9  c #333334",
"0  c #3A3531",
"q  c #3D3935",
"w  c #363539",
"e  c #3B3A3C",
"r  c #441A0D",
"t  c #531F0D",
"y  c #43261C",
"u  c #4B2719",
"i  c #492C1F",
"p  c #522012",
"a  c #6A2811",
"s  c #742D17",
"d  c #7B301A",
"f  c #5E3626",
"g  c #433B33",
"h  c #493F34",
"j  c #423E3A",
"k  c #653A28",
"l  c #4C443B",
"z  c #50463B",
"x  c #3E3D41",
"c  c #3C494F",
"v  c #444444",
"b  c #46464A",
"n  c #48474B",
"m  c #4B4A4C",
"M  c #544B44",
"N  c #594F47",
"B  c #544F4B",
"V  c #5A5045",
"C  c #53504D",
"Z  c #5D5249",
"A  c #4F4F50",
"S  c #525155",
"D  c #5A5753",
"F  c #5F5954",
"G  c #535258",
"H  c #5A5A5E",
"J  c #62574D",
"K  c #65584B",
"L  c #6B5D4D",
"P  c #635A53",
"I  c #6B5E53",
"U  c #736453",
"Y  c #786857",
"T  c #74665B",
"R  c #77685D",
"E  c #796A5E",
"W  c #5B5B62",
"Q  c #605F67",
"!  c #646466",
"~  c #65646B",
"^  c #69676E",
"/  c #6A6A6D",
"(  c #736C65",
")  c #7E6F62",
"_  c #7F7163",
"`  c #656372",
"'  c #686675",
"]  c #6B6973",
"[  c #6E6C79",
"{  c #716F77",
"}  c #706E7B",
"|  c gray45",
" . c #74727C",
".. c #78767F",
"X. c #853216",
"o. c #8A3417",
"O. c #8A361E",
"+. c #973918",
"@. c #9C3B1C",
"#. c #A13F21",
"$. c #BA461E",
"%. c #C2491F",
"&. c #CB4E24",
"*. c #D25126",
"=. c #D95326",
"-. c #E45727",
";. c #EA5726",
":. c #E75827",
">. c #EB5926",
",. c #F15B27",
"<. c #FF6129",
"1. c #8A7763",
"2. c #8C7A66",
"3. c #877769",
"4. c #8D7C6A",
"5. c #917E6B",
"6. c #978573",
"7. c #9D8974",
"8. c #9B8A7B",
"9. c #A18C75",
"0. c #A6927D",
"q. c #2D6D95",
"w. c #3D799D",
"e. c #517D97",
"r. c #767380",
"t. c #797781",
"y. c #7D7B85",
"u. c #7F7E88",
"i. c #817F89",
"p. c #72A4C0",
"a. c #838383",
"s. c #84828C",
"d. c #90908D",
"f. c #9A9A96",
"g. c #AD9A85",
"h. c #B39D85",
"j. c #B5A18A",
"k. c #BCA58B",
"l. c #BDA792",
"z. c #8598A0",
"x. c #AAABA7",
"c. c #C2A98E",
"v. c #C8AD8F",
"b. c #C7AE92",
"n. c #C9AF91",
"m. c #CDB295",
"M. c #CEB59A",
"N. c #D1B79A",
"B. c #D5B99B",
"V. c #DCBFA1",
"C. c #DDC1A2",
"Z. c #DDC2A8",
"A. c #E2C4A4",
"S. c #E7C9A7",
"D. c #E6CAAA",
"F. c #EBCDAB",
"G. c #EFD0AD",
"H. c #F0D1AE",
"J. c #ECCDB1",
"K. c #F3D5B6",
"L. c #F3D6B9",
"P. c #F6D9C0",
/* pixels */
"s.s.s.s.s.s.s.s.s.s.s.s.s.s.s.s.s.s.s.s.s.s.s.s.s.s.s.s.s.s.s.s.s.s.s.s.s.s.s.s.",
"s.s.s.s.s.s.s.s.s.s.s.s.s.s.s.s.s.s.s.s.s.s.s.s.s.s.s.s.s.s.s.s.s.s.s.s.s.s.s.s.",
"s.s.s.s.s.s.s.s.s.s.s.s.s.s.s.s.s.t.y.t.......s.s.s.s.s.s.s.s.s.s.s.s.s.s.s.s.s.",
"s.s.s.s.s.s.s.s.s.s.s.s.s.i.^ ^ G < > 9 w 9 x Q y.s.s.s.s.s.s.s.s.s.s.s.s.s.s.s.",
"s.s.s.s.s.s.s.s.s.s.s.i.Q v : : , e v H ! | { c b H u.s.s.s.s.s.s.s.s.s.s.s.s.s.",
"s.s.s.s.s.s.s.s.s.s.s.W 6 7 v v v v v v v D Q 6.! A S ..s.s.s.s.s.s.s.s.s.s.s.s.",
"s.s.s.s.s.s.s.s.s.i.H 6 x v v v v v v v v v b A / a.A b i.s.s.s.s.s.s.s.s.s.s.s.",
"s.s.s.s.s.s.s.s.s. ., v v v v v v v v v v v v v m / / x  .s.s.s.s.s.s.s.s.s.s.s.",
"s.s.s.s.s.s.s.s.i.m 6 v v v v v c l c l c l l c v v / ! b y.s.s.s.s.s.s.s.s.s.s.",
"s.s.s.s.s.s.s.s.u.< e v v v v v D F D F B j c l C P D / w ..s.s.s.s.s.s.s.s.s.s.",
"s.s.s.s.s.s.s.s.u.6 e v v v v S k.B.V.A.j.( m C j.D.l.( 9  .s.s.s.s.s.i.s.s.s.s.",
"s.s.s.s.s.s.s.s.u.< M D M b b 3.m.A.F.G.G.S.g.k.H.L.P.l.q  .s.s.s.s.s.s.s.s.s.s.",
"s.s.s.s.s.s.s.s.u.7 L R I I I h.C.G.G.G.G.G.H.H.G.G.L.J.z  .s.s.s.s.s.s.s.s.s.s.",
"s.s.s.s.s.s.s.s.u.7 P E R ( 3.c.C.H.G.G.G.G.G.G.G.G.L.G.M  .s.s.s.s.s.s.s.s.s.s.",
"s.s.s.s.s.s.s.s.y.> 2 M R R g.5.L U k.G.H.H.G.F.G.B._ L 3  .s.s.s.s.s.s.s.s.s.s.",
"s.s.s.s.s.s.s.s.S 2 T = N 5.N.z + X = K n.A.F.9.l M +   m s.s.s.s.s.s.s.s.s.s.s.",
"s.s.s.s.s.s.s.s.v 6.h.L J 6.S.V d.f.; ; e 7.n.3 8 z./   ! s.s.s.s.s.s.s.s.s.s.s.",
"s.s.s.s.s.s.s.s.n 9.K U k.7.F.2.3 x.p.w.b 5.c.l e.q.9 1 ! s.s.s.s.s.s.s.s.s.s.s.",
"s.s.s.s.s.s.s.s.n z 7.g k.B.A.S.2.q c ; z B.S.Y 5 8 L L ~ s.s.s.s.s.s.s.s.s.s.s.",
"s.s.s.s.s.s.s.s. .2 g.M.S.F.N.A.S.n.v.n.m.N.N.N.m.n.Z.T Q s.s.s.s.s.s.s.s.s.s.s.",
"s.s.s.s.s.s.s.s.i.n 2 3.3.7.N.N.A.G.m.j.7.E R 5.k.S.B.e Q s.s.s.s.s.s.s.s.s.s.s.",
"s.s.s.s.s.s.s.s.s.i.W G m : 1.b.B.n.) 2 1 1 2 l R 1.q w t.s.s.s.s.s.s.s.s.s.s.s.",
"s.s.s.s.t.} r.s.s.s.s.s.s.W : 1 6.L P 3 Z F V z N % w y.s.s.s.s.i. .} y.s.s.s.s.",
"s.s.s.s.r.` [ s.s.s.s.s.s...,   o # 1 l l l 4 X   9 y.s.s.s.s.s.y.' ] y.s.s.s.s.",
"s.s.s.s.y.[  .s.s.s.s.s.s.W $ X.r #.+.@ 1 1 o $ r w y.s.s.s.s.s.i.} } i.s.s.s.s.",
"s.s.s.s.s.s.s.s.s.s.s.s.t.> s =.p &.<.$.u u X.@ X.i t.s.s.s.s.s.s.i.s.s.s.s.s.s.",
"s.s.i.i.i.s.s.s.s.s.s.s. .& s o.r &.<.<.*.=.%.o t - ..s.s.s.s.s.s.s.i.i.i.i.s.s.",
"s.s.[ ' r.s.s.s.s.s.s.s. .0 1.4 . d -.,.-.:.%.o l 4  .s.s.s.s.s.s.s.s.} ' r.s.s.",
"s.s.' ` } s.s.s.s.s.s.s.} N K.0.+ $ p a a a p   I g r.s.s.s.s.s.s.s.i.[ ` } s.s.",
"s.s.t.r.y.s.s.s.s.s.s.s. .q 8.h p &.>.>.*.*.&.r : c y.s.s.s.s.s.s.s.s.y.} y.s.s.",
"s.s.s.s.s.s.s.s.s.s.s.s.y.G n % @.,.>.X.p O.;.+.n s.s.s.s.s.s.s.s.s.s.s.s.s.s.s.",
"s.s.s.s.s.s.s.s.s.s.s.s.s.y.} < i k f O   * k y x ..y.s.s.s.s.s.s.s.s.s.s.s.s.s.",
"s.s.s.s.s.s.s.s.s.s.s.s. ./ ~ 6 U 1.) < 7 z 4.N x ^ ] y.s.s.s.s.s.s.s.s.s.s.s.s.",
"s.s.s.s.s.s.s.s.s.s.s.i.} ] ! b e e e v G e e e S ] { i.s.s.i.s.s.s.s.s.s.s.s.s.",
"s.s.s.s.s.s.s.s.s.s.s.s.s.t. . .{ ^ ] ^ ^ ] { { { | i.s.s.s.s.s.s.s.s.s.s.s.s.s.",
"s.s.s.s.s.s.s.s.s.s.s.s.s.s.s.s.i.....t.t. .i.s.s.s.s.s.s.s.s.s.s.s.s.s.s.s.s.s.",
"s.s.s.s.s.s.s.s.s.s.s.s.s.s. . .u.s.s.s.s.s.s.s.s.s.s.s.s.s.s.s.s.s.s.s.s.s.s.s.",
"s.s.s.s.s.s.s.s.s.s.s.s.s.u.` ` r.s.s.s.s.s.s.s.s.s.s.s.s.s.s.s.s.s.s.s.s.s.s.s.",
"s.s.s.s.s.s.s.s.s.s.s.s.s.i.[ ' y.s.s.s.s.s.s.s.s.s.s.s.s.s.s.s.s.s.s.s.s.s.s.s.",
"s.s.s.s.s.s.s.s.s.s.s.s.s.s.i.i.s.s.s.s.s.s.s.s.s.s.s.s.s.s.s.s.s.s.s.s.s.s.s.s."
};
