/* XPM */
static char * wall_xpm[] = {
"32 32 562 2",
"  	c #04070D",
". 	c #04081C",
"+ 	c #040931",
"@ 	c #050A40",
"# 	c #0C073C",
"$ 	c #0B0744",
"% 	c #08074E",
"& 	c #060756",
"* 	c #05085A",
"= 	c #08066F",
"- 	c #09057B",
"; 	c #080676",
"> 	c #03096D",
", 	c #030860",
"' 	c #040750",
") 	c #070748",
"! 	c #0B055F",
"~ 	c #0B044B",
"{ 	c #0B052C",
"] 	c #0B0615",
"^ 	c #060A07",
"/ 	c #050A08",
"( 	c #060A0B",
"_ 	c #04080A",
": 	c #08070C",
"< 	c #08070B",
"[ 	c #090717",
"} 	c #090924",
"| 	c #060833",
"1 	c #070A3F",
"2 	c #0A0633",
"3 	c #08053C",
"4 	c #08074D",
"5 	c #060757",
"6 	c #05075E",
"7 	c #08076B",
"8 	c #090772",
"9 	c #080771",
"0 	c #03096F",
"a 	c #030765",
"b 	c #06085A",
"c 	c #090853",
"d 	c #090855",
"e 	c #08064A",
"f 	c #0B073B",
"g 	c #0B052E",
"h 	c #08091D",
"i 	c #08091B",
"j 	c #090B1B",
"k 	c #070916",
"l 	c #0C0614",
"m 	c #0A061C",
"n 	c #070626",
"o 	c #05052C",
"p 	c #080627",
"q 	c #090736",
"r 	c #07064B",
"s 	c #07075B",
"t 	c #080867",
"u 	c #050662",
"v 	c #070765",
"w 	c #06066B",
"x 	c #040A71",
"y 	c #06096D",
"z 	c #070766",
"A 	c #07045F",
"B 	c #050959",
"C 	c #05064F",
"D 	c #080645",
"E 	c #0A063E",
"F 	c #0A082E",
"G 	c #070725",
"H 	c #08081F",
"I 	c #050718",
"J 	c #0A090E",
"K 	c #0D0C11",
"L 	c #0F0E13",
"M 	c #0E070A",
"N 	c #0C070F",
"O 	c #090815",
"P 	c #070819",
"Q 	c #08071E",
"R 	c #090831",
"S 	c #070749",
"T 	c #07075C",
"U 	c #08076A",
"V 	c #05075D",
"W 	c #07095C",
"X 	c #060767",
"Y 	c #040973",
"Z 	c #060871",
"` 	c #0A0870",
" .	c #0A046B",
"..	c #030766",
"+.	c #020659",
"@.	c #050748",
"#.	c #08083C",
"$.	c #080723",
"%.	c #08091A",
"&.	c #060810",
"*.	c #07070C",
"=.	c #0D0C12",
"-.	c #03090A",
";.	c #040810",
">.	c #080816",
",.	c #090817",
"'.	c #0B081F",
").	c #080829",
"!.	c #020638",
"~.	c #040A48",
"{.	c #120E5C",
"].	c #0A0857",
"^.	c #07085C",
"/.	c #050864",
"(.	c #09046E",
"_.	c #09046D",
":.	c #09056A",
"<.	c #090568",
"[.	c #04076D",
"}.	c #04075B",
"|.	c #060944",
"1.	c #070831",
"2.	c #0C0826",
"3.	c #09061B",
"4.	c #070610",
"5.	c #070709",
"6.	c #04060F",
"7.	c #040610",
"8.	c #050711",
"9.	c #0B0913",
"0.	c #08070E",
"a.	c #08070A",
"b.	c #080806",
"c.	c #06080B",
"d.	c #05070F",
"e.	c #06081C",
"f.	c #050629",
"g.	c #080631",
"h.	c #06082D",
"i.	c #030826",
"j.	c #020924",
"k.	c #0E0D3F",
"l.	c #0A0A50",
"m.	c #070763",
"n.	c #05076B",
"o.	c #090661",
"p.	c #0A0664",
"q.	c #0A0567",
"r.	c #090569",
"s.	c #04065E",
"t.	c #04054E",
"u.	c #09093C",
"v.	c #09082C",
"w.	c #070514",
"x.	c #08060E",
"y.	c #07070A",
"z.	c #060815",
"A.	c #060816",
"B.	c #050715",
"C.	c #050714",
"D.	c #0B0914",
"E.	c #0B050C",
"F.	c #07070D",
"G.	c #070A27",
"H.	c #060847",
"I.	c #08094D",
"J.	c #07093C",
"K.	c #050924",
"L.	c #050813",
"M.	c #060827",
"N.	c #09084D",
"O.	c #050769",
"P.	c #0A0861",
"Q.	c #08065C",
"R.	c #09075B",
"S.	c #090759",
"T.	c #08094C",
"U.	c #08073F",
"V.	c #0A0730",
"W.	c #0A0623",
"X.	c #080610",
"Y.	c #07081A",
"Z.	c #07081B",
"`.	c #080611",
" +	c #0E030D",
".+	c #09060C",
"++	c #03072A",
"@+	c #050A59",
"#+	c #05095A",
"$+	c #060748",
"%+	c #08052F",
"&+	c #08041E",
"*+	c #06072A",
"=+	c #09084F",
"-+	c #05095C",
";+	c #0A0768",
">+	c #07074B",
",+	c #070941",
"'+	c #07083B",
")+	c #070531",
"!+	c #0C082A",
"~+	c #0C061E",
"{+	c #080709",
"]+	c #07060F",
"^+	c #07071C",
"/+	c #07071D",
"(+	c #08070D",
"_+	c #0D051F",
":+	c #0A071E",
"<+	c #07072B",
"[+	c #090943",
"}+	c #0B0853",
"|+	c #090446",
"1+	c #0C0438",
"2+	c #100732",
"3+	c #080839",
"4+	c #070547",
"5+	c #09054F",
"6+	c #08064B",
"7+	c #060859",
"8+	c #080950",
"9+	c #0A0430",
"0+	c #050825",
"a+	c #040826",
"b+	c #060928",
"c+	c #060927",
"d+	c #070816",
"e+	c #050519",
"f+	c #090718",
"g+	c #090715",
"h+	c #090810",
"i+	c #09080E",
"j+	c #080708",
"k+	c #080808",
"l+	c #0D0539",
"m+	c #0A0734",
"n+	c #050747",
"o+	c #070656",
"p+	c #0A064E",
"q+	c #0C0641",
"r+	c #0C0535",
"s+	c #080A2F",
"t+	c #08083A",
"u+	c #06063C",
"v+	c #060834",
"w+	c #060A38",
"x+	c #07093D",
"y+	c #0B0944",
"z+	c #0A0545",
"A+	c #070739",
"B+	c #070737",
"C+	c #060634",
"D+	c #060733",
"E+	c #090829",
"F+	c #050909",
"G+	c #05080B",
"H+	c #0A0814",
"I+	c #0A0812",
"J+	c #06060A",
"K+	c #060608",
"L+	c #0A063C",
"M+	c #040744",
"N+	c #040856",
"O+	c #04075F",
"P+	c #070757",
"Q+	c #0A0749",
"R+	c #09053D",
"S+	c #07092C",
"T+	c #05072F",
"U+	c #060A24",
"V+	c #06081A",
"W+	c #07092B",
"X+	c #0A0B44",
"Y+	c #09064A",
"Z+	c #060542",
"`+	c #08073C",
" @	c #080837",
".@	c #0C0A32",
"+@	c #070919",
"@@	c #050906",
"#@	c #050905",
"$@	c #08060D",
"%@	c #080804",
"&@	c #080807",
"*@	c #080B28",
"=@	c #060B30",
"-@	c #040A49",
";@	c #050965",
">@	c #050968",
",@	c #070A5E",
"'@	c #0A0A51",
")@	c #090846",
"!@	c #090A38",
"~@	c #09093B",
"{@	c #080A34",
"]@	c #040721",
"^@	c #060512",
"/@	c #060623",
"(@	c #04073A",
"_@	c #060A4E",
":@	c #090649",
"<@	c #06053F",
"[@	c #080936",
"}@	c #070915",
"|@	c #05080A",
"1@	c #080902",
"2@	c #0E061E",
"3@	c #0D0730",
"4@	c #0A0648",
"5@	c #0A075B",
"6@	c #0A095E",
"7@	c #080948",
"8@	c #0A0B51",
"9@	c #060A42",
"0@	c #080945",
"a@	c #0B0A3E",
"b@	c #090729",
"c@	c #060521",
"d@	c #08062E",
"e@	c #09043E",
"f@	c #0B054A",
"g@	c #06073A",
"h@	c #050725",
"i@	c #080818",
"j@	c #0D091A",
"k@	c #070804",
"l@	c #151515",
"m@	c #0B063C",
"n@	c #0D0747",
"o@	c #0C0754",
"p@	c #0D095E",
"q@	c #0B0A55",
"r@	c #080A49",
"s@	c #070944",
"t@	c #050743",
"u@	c #060B42",
"v@	c #080946",
"w@	c #09073B",
"x@	c #0C092C",
"y@	c #050523",
"z@	c #08062D",
"A@	c #090539",
"B@	c #0C0643",
"C@	c #060836",
"D@	c #050821",
"E@	c #050611",
"F@	c #0A0714",
"G@	c #08060F",
"H@	c #07095B",
"I@	c #090858",
"J@	c #0A0754",
"K@	c #0B0752",
"L@	c #0C0B54",
"M@	c #0C0B56",
"N@	c #090A50",
"O@	c #070945",
"P@	c #0A083D",
"Q@	c #0A082B",
"R@	c #070627",
"S@	c #0E0B38",
"T@	c #090637",
"U@	c #050831",
"V@	c #05081C",
"W@	c #06070D",
"X@	c #09060D",
"Y@	c #0B0A12",
"Z@	c #030963",
"`@	c #06095A",
" #	c #0A0740",
".#	c #0C0A5A",
"+#	c #0C0864",
"@#	c #0C0962",
"##	c #0A0A4E",
"$#	c #0A083C",
"%#	c #0A072B",
"&#	c #070629",
"*#	c #0A082C",
"=#	c #09072D",
"-#	c #09072F",
";#	c #03062A",
">#	c #020616",
",#	c #09060A",
"'#	c #0B0A15",
")#	c #0E0A59",
"!#	c #07044C",
"~#	c #0B094F",
"{#	c #0E0864",
"]#	c #0C065E",
"^#	c #0A0943",
"/#	c #0B073D",
"(#	c #0C0839",
"_#	c #0A0731",
":#	c #07062A",
"<#	c #07042C",
"[#	c #07071E",
"}#	c #070622",
"|#	c #0B0721",
"1#	c #080616",
"2#	c #090841",
"3#	c #0C094B",
"4#	c #08083B",
"5#	c #090748",
"6#	c #0B0757",
"7#	c #090551",
"8#	c #07073D",
"9#	c #090634",
"0#	c #090731",
"a#	c #0A082F",
"b#	c #07062B",
"c#	c #06071E",
"d#	c #04070F",
"e#	c #070A0E",
"f#	c #070914",
"g#	c #0B0819",
"h#	c #080712",
"i#	c #080805",
"j#	c #0A0A3C",
"k#	c #090847",
"l#	c #080648",
"m#	c #080741",
"n#	c #080644",
"o#	c #080546",
"p#	c #080642",
"q#	c #080729",
"r#	c #050427",
"s#	c #0B092F",
"t#	c #030806",
"u#	c #050A03",
"v#	c #090909",
"w#	c #181818",
"x#	c #070707",
"y#	c #07073F",
"z#	c #0C0851",
"A#	c #0B0655",
"B#	c #0B074F",
"C#	c #080838",
"D#	c #080937",
"E#	c #080822",
"F#	c #060523",
"G#	c #09072B",
"H#	c #0E0C33",
"I#	c #060718",
"J#	c #040709",
"K#	c #050907",
"L#	c #05080C",
"M#	c #080809",
"N#	c #161616",
"O#	c #101010",
"P#	c #070A4A",
"Q#	c #0B0957",
"R#	c #0D0754",
"S#	c #0D0745",
"T#	c #080B35",
"U#	c #05092F",
"V#	c #04082A",
"W#	c #040828",
"X#	c #0C0829",
"Y#	c #0B0724",
"Z#	c #0C0820",
"`#	c #090719",
" $	c #070808",
".$	c #070708",
"+$	c #090B52",
"@$	c #090851",
"#$	c #0B064A",
"$$	c #0B053E",
"%$	c #0A093A",
"&$	c #07082E",
"*$	c #03071C",
"=$	c #040813",
"-$	c #12111D",
";$	c #0C0B15",
">$	c #07060B",
",$	c #080A58",
"'$	c #060647",
")$	c #08053B",
"!$	c #0D073A",
"~$	c #0A042E",
"{$	c #0A0624",
"]$	c #070614",
"^$	c #0A0A0A",
"/$	c #08095D",
"($	c #060742",
"_$	c #0A0935",
":$	c #0A0632",
"<$	c #09041A",
"[$	c #090517",
"}$	c #080513",
"|$	c #080803",
"1$	c #070807",
"2$	c #141414",
"3$	c #070662",
"4$	c #07064F",
"5$	c #080737",
"6$	c #080626",
"7$	c #050614",
"8$	c #050904",
"9$	c #06070E",
"0$	c #0B0E1D",
"a$	c #03081C",
"b$	c #050505",
"c$	c #0A0A0E",
"d$	c #0B0B0C",
"e$	c #191919",
"f$	c #070661",
"g$	c #070551",
"h$	c #08053D",
"i$	c #08052C",
"j$	c #080706",
"k$	c #060612",
"l$	c #151736",
"m$	c #070935",
"n$	c #0A0620",
"o$	c #383544",
"p$	c #514E60",
"q$	c #0D0E06",
"r$	c #0B0B0B",
"s$	c #060852",
"t$	c #060746",
"u$	c #0A0838",
"v$	c #0A062C",
"w$	c #0A0A25",
"x$	c #050726",
"y$	c #050834",
"z$	c #0D0924",
"A$	c #080612",
"B$	c #09080F",
"C$	c #363442",
"D$	c #080901",
"E$	c #04093D",
"F$	c #040732",
"G$	c #070828",
"H$	c #07061F",
"I$	c #0C0B27",
"J$	c #070913",
"K$	c #050908",
"L$	c #05080D",
"M$	c #020715",
"N$	c #03091C",
"O$	c #080615",
"P$	c #060703",
"Q$	c #08080B",
"R$	c #080531",
"S$	c #050426",
"T$	c #07060D",
"U$	c #070803",
"V$	c #06050E",
"W$	c #090712",
"X$	c #070611",
"Y$	c #080726",
"Z$	c #05051F",
"`$	c #050713",
" %	c #06050C",
".%	c #060814",
"+%	c #050712",
"@%	c #222124",
"#%	c #0A0A0C",
"$%	c #04070A",
"%%	c #05070D",
"&%	c #0A0716",
"*%	c #090908",
"=%	c #0A0A08",
"  . + @ # $ % & * = - ; > , ' ) ! ~ { ] ^ / ( _ : : : : : : : < ",
"[ } | 1 2 3 4 5 6 7 8 9 0 a b c d e f g h i j k : : : : : : : < ",
"l m n o p q r s t u v w x y z A B C D E F G H I : : J K L : : < ",
"M N O P Q R S T U V W X Y Z `  ...+.@.#.F $.%.&.*.*.J =.L : < < ",
"-.;.>.,.'.).!.~.{.].^./.(._.:.<.[.}.|.1.2.3.4.5.6.7.8.8.9.0.a.b.",
"c.d.e.f.g.h.i.j.k.l.m.n.o.p.q.r.s.t.u.v.3.w.x.y.z.A.B.C.D.0.a.b.",
"E.F.G.H.I.J.K.L.M.N.z O.P.Q.R.S.T.U.V.W.X.x.: *.Y.Z.Z.Y.`.0.a.b.",
" +.+++@+#+$+%+&+*+=+m.-+;+Q.>+,+'+)+!+~+{+y.*.]+^+/+/+^+`.(+{+b.",
"_+:+<+[+}+|+1+2+3+4+5+6+7+8+E 9+0+a+b+c+d+  d.e+f+g+h+i+j+k+k+k+",
"l+m+3+n+o+p+q+r+s+t+u+v+w+x+y+z+A+B+C+D+E+k F+G+H+I+J+K+k+k+k+k+",
"L+t+M+N+O+P+Q+R+S+| T+U+V+W+X+c Y+Z+`+ @.@+@@@#@$@< k+%@&@k+k+k+",
"*@=@-@;@>@,@'@)@!@~@{@]@^@/@(@_@:@<@[@s+G }@|@G+: {+%@1@&@k+k+k+",
"2@3@4@5@6@I.7@8@9@0@a@b@c@d@e@f@g@h@i@j@w.]+5.k@&@k+&@&@k+k+l@l@",
"m@n@o@p@q@r@s@t@u@v@w@x@y@z@A@B@C@D@E@F@G@$@< j+k+k+k+k+k+k+k+k+",
"H@I@J@K@L@M@N@O@u@v@P@Q@R@F S@T@U@V@W@X@{+< (+Y@k+k+k+k+k+k+k+k+",
"Z@`@S  #.#+#@###9@0@$#%#&#*#=#-#;#>#c.,#%@j+x.'#j+k+k+k+k+k+k+k+",
"}+)#!#U.~#{#]#^#/#(#_#:#<#} [#}#|#1#*.%@&@k+k+j+k+k+k+k+k+k+k+k+",
"2#3#D 4#5#6#7#8#9#0#a#b#c#d#e#f#g#h#a.i#&@k+k+k+k+k+k+k+k+k+k+k+",
"j#k#l#m#n#o#p#t+q#r#=#s#z.t#u#|@< a.j+&@k+k+v#w#x#k+k+k+k+k+k+k+",
"y#z#A#B#p##.C#D#E#F#G#H#I#J#K#L#%@i#&@M#k+k+k+N#O#x#k+k+k+k+k+k+",
"P#Q#R#S#T#U#V#W#X#Y#Z#`#y. $O#.$&@&@k+k+k+k+k+k+k+k+k+k+k+k+k+k+",
"+$@$#$$$%$&$*$=$-$;$h+>$k+k+x#k+k+k+k+k+k+k+k+k+k+k+k+k+k+k+k+k+",
",$'$)$!$~${$]$y.%@i#j+{+k+k+k+k+k+k+k+k+k+k+^$v#k+k+v#v#k+k+k+k+",
"/$($_$:$<$[$}$x.|$1$F.4.{+&@&@k+k+k+k+k+k+k+k+l@k+k+k+2$k+k+k+k+",
"3$4$5$6$Y.[#7$8$j+9$0$a$w.b$%@a.c$: : c$d$k+k+k+k+k+v#e$k+k+k+k+",
"f$g$h$i$/+Z.8.K#j$k$l$m$n$`.(+o$p$9.b.q$r$k+k+k+k+k+v#e$k+k+k+k+",
"s$t$u$v$w$B.L#G+j$k$x$y$z$A$B$C$p$9.b.D$&@k+k+k+k+k+k+k+k+k+k+k+",
"E$F$G$H$I$J$K$L$a.9$M$N$O$k+P$Q$c$: : < k+k+k+k+k+k+k+k+k+k+k+k+",
"R$S$H B.T$5.k@U$V$W$X$X${+&@&@k+k+k+k+k+k+k+k+k+k+k+k+k+k+k+k+k+",
"Y$Z$i `$x.< k+i# %B$0.(+k+k+k+k+k+k+k+k+k+k+k+k+k+k+k+k+k+k+k+k+",
"z..%+%8.H+I+< {+{+a.@%#%k+k+k+k+k+k+k+k+k+k+l@v#k+k+k+k+k+k+k+k+",
"J#$%%%d.&%H+x.< b.b.*%=%k+k+k+k+k+k+k+k+k+k+r$k+k+k+k+k+k+k+k+k+"};
